# xmcd
#
# Track frame offsets: 
#        150
#        12577
#        23949
#        40058
#        51743
#        63811
#        76935
#        87807
#        96699
#        105760
#        116021
#        128009
#        140617
#        151076
#        161023
#        171542
#        182475
#        191048
#        201229
#        215129
#        221600
#        236733
#        249421
#        261643
#        271590
#        281929
#        296829
#        308227
#
# Disc length: 4295 seconds
#
# Revision: 0
# Processed by: cddbd v1.5.2PL0 Copyright (c) Steve Scherf et al.
# Submitted via: ExactAudioCopy v1.0b1
#
DISCID=ac10c51c
DTITLE=Sam Cooke - Sam Cooke - Encore
DYEAR=2011
DGENRE=R&B
TTITLE0=You Send Me
TTITLE1=The Lonesome Road
TTITLE2=Tammy
TTITLE3=Ol' Man River
TTITLE4=Moonlight In Vermont
TTITLE5=Canadian Sunset
TTITLE6=Summertime
TTITLE7=Around The World
TTITLE8=Ain't Misbehavin'
TTITLE9=The Bells Of St. Mary's
TTITLE10=So Long
TTITLE11=Danny Boy
TTITLE12=That Lucky Old Sun
TTITLE13=I'll Come Running Back To You
TTITLE14=Forever
TTITLE15=Desire Me
TTITLE16=Oh Look At Me Now
TTITLE17=Someday
TTITLE18=Along The Navajo Trail
TTITLE19=Running Wild
TTITLE20=Accentuate The Positive
TTITLE21=Mary, Mary Lou
TTITLE22=When I Fall In Love
TTITLE23=I Cover The Waterfront
TTITLE24=My Foolish Heart
TTITLE25=Today I Sing The Blues
TTITLE26=The Gypsy
TTITLE27=It's The Talk Of The Town
EXTD=
EXTT0=
EXTT1=
EXTT2=
EXTT3=
EXTT4=
EXTT5=
EXTT6=
EXTT7=
EXTT8=
EXTT9=
EXTT10=
EXTT11=
EXTT12=
EXTT13=
EXTT14=
EXTT15=
EXTT16=
EXTT17=
EXTT18=
EXTT19=
EXTT20=
EXTT21=
EXTT22=
EXTT23=
EXTT24=
EXTT25=
EXTT26=
EXTT27=
PLAYORDER=
